PathFileType	4	(X/Y/Z)	/Users/niels/Desktop/University/Third Semester/Perception and Action/Exam/Gymnastics Motion Tracking/Code for Gym Tracking/Analyzed Data/Webcam_Backflip/id6_2_pure_Sports2D/id6_2_pure_Sports2D_px_person00.trc
DataRate	CameraRate	NumFrames	NumMarkers	Units	OrigDataRate	OrigDataStartFrame	OrigNumFrames
29.81132075471698	29.81132075471698	9	22	m	29.81132075471698	59	159
Frame#	Time	Hip			RHip			RKnee			RAnkle			RBigToe			RSmallToe			RHeel			LHip			LKnee			LAnkle			LBigToe			LSmallToe			LHeel			Neck			Head			Nose			RShoulder			RElbow			RWrist			LShoulder			LElbow			LWrist		
		X1	Y1	Z1	X2	Y2	Z2	X3	Y3	Z3	X4	Y4	Z4	X5	Y5	Z5	X6	Y6	Z6	X7	Y7	Z7	X8	Y8	Z8	X9	Y9	Z9	X10	Y10	Z10	X11	Y11	Z11	X12	Y12	Z12	X13	Y13	Z13	X14	Y14	Z14	X15	Y15	Z15	X16	Y16	Z16	X17	Y17	Z17	X18	Y18	Z18	X19	Y19	Z19	X20	Y20	Z20	X21	Y21	Z21	X22	Y22	Z22
59	1.9791139240506328	0.7856816810703534	-0.5417107940418157	0.0	0.7838958533211726	-0.5420372827968567	0.0	0.7800879530716691	-0.6479269915164502	0.0	0.7400847016504104	-0.7383111113938376	0.0	0.7633816612998973	-0.7693784775615099	0.0	0.7568232725651104	-0.7691132491235764	0.0	0.728841885310441	-0.7491484466711852	0.0	0.7884829906436902	-0.5410500535430814	0.0	0.7795241820439681	-0.6461305456344669	0.0	0.7472816691039355	-0.7358108207036349	0.0	0.7720331964333378	-0.7631915191648847	0.0	0.7658184153804287	-0.7589191524161703	0.0	0.7347552476401864	-0.7456084224498831	0.0	0.8966464704556938	-0.47134240940397254	0.0	0.9648162922720603	-0.4662076951301763	0.0	0.934568621583328	-0.48104939346605974	0.0	0.8898374997459245	-0.47479396004399843	0.0	0.9377124117583231	-0.5081665148535199	0.0	0.9934443786780055	-0.5198828633349345	0.0	0.8915944213897427	-0.4653662486532894	0.0	0.9316667313609878	-0.4719129955770881	0.0	0.9681678506330813	-0.46349178953185516	0.0
60	2.0126582278481013	0.7819551469957439	-0.584986093361485	0.0	0.7810670715601306	-0.5853897671449931	0.0	0.7816450674719488	-0.6892273674383521	0.0	0.747296918429138	-0.7796993223150943	0.0	0.7695941183403703	-0.8055413215191722	0.0	0.7644681747770584	-0.8065331879176928	0.0	0.7368945959469111	-0.790395313942031	0.0	0.7841149670620469	-0.5841851891882133	0.0	0.7806869323809342	-0.6873779184058029	0.0	0.7493276550963464	-0.7771131532786271	0.0	0.7746993764121932	-0.8012049949107467	0.0	0.7673770629956982	-0.7982825014266336	0.0	0.7381131243181037	-0.7869156823020732	0.0	0.879199233052171	-0.4898196165823994	0.0	0.9448222247238824	-0.4743594938785123	0.0	0.9176207614038576	-0.4922193756600656	0.0	0.8728930793795205	-0.49499561136259496	0.0	0.9325364943894775	-0.5104235964701883	0.0	0.9903935991363709	-0.5061402043645068	0.0	0.873569313657399	-0.48642856829481124	0.0	0.9228034097261067	-0.4735919121350037	0.0	0.9587938589803362	-0.447733044261076	0.0
61	2.0462025316455694	0.7805453230662761	-0.6226538873266859	0.0	0.7800607054602569	-0.6233036740020309	0.0	0.7834426442051996	-0.7247628002540167	0.0	0.7516747013001014	-0.812535681465165	0.0	0.7720347328521385	-0.8345693810834247	0.0	0.768228391292341	-0.8368017592012056	0.0	0.7415882312584133	-0.8221684392462854	0.0	0.7823777064537462	-0.6218964365648251	0.0	0.7822670091315924	-0.722947033007941	0.0	0.7513354745118332	-0.8102097095529729	0.0	0.7765847005238409	-0.8312822245372408	0.0	0.7687859949291846	-0.8297114898206945	0.0	0.7408986243621993	-0.819296323002212	0.0	0.8620951393795524	-0.5085271105077616	0.0	0.9239279058409097	-0.482756255303876	0.0	0.8999713466456093	-0.5037519488221749	0.0	0.856071188150431	-0.5148831006163583	0.0	0.922053322891509	-0.5118561236030214	0.0	0.9780399546187863	-0.4924846962086086	0.0	0.8560519238166646	-0.5077192146852822	0.0	0.9103462255022803	-0.48103717224923676	0.0	0.9447515711192133	-0.4424800407105392	0.0
62	2.079746835443038	0.7807829947740432	-0.6501819654813247	0.0	0.7803464569865314	-0.6511514485726775	0.0	0.785182581698341	-0.7504210623529659	0.0	0.7536794868969179	-0.8346969370218449	0.0	0.7719352925501115	-0.8545440180050871	0.0	0.7689925918704172	-0.8579043201025855	0.0	0.7432890715126518	-0.843198798487195	0.0	0.7825251040057509	-0.6495967328477068	0.0	0.7839765311369015	-0.7487191521411207	0.0	0.7528142754581946	-0.8326909362093569	0.0	0.7779268972812945	-0.8517326093369068	0.0	0.770181565258753	-0.8510429916481574	0.0	0.7425013169815283	-0.8410894354636387	0.0	0.8468856294899247	-0.5232708740865725	0.0	0.9037362399090452	-0.48762246796760833	0.0	0.8834180967227827	-0.5119297139549542	0.0	0.8410847204159833	-0.5303493194259815	0.0	0.9091199829155168	-0.5108567561991072	0.0	0.9609764685299507	-0.47883270236943304	0.0	0.840770799545272	-0.5247014828399654	0.0	0.897373861977633	-0.4902643958829577	0.0	0.93109379272847	-0.4442297548589287	0.0
63	2.113291139240506	0.7820813796840871	-0.6637196981494674	0.0	0.781526820627835	-0.665024524926325	0.0	0.7868326933522908	-0.7627661037188253	0.0	0.7543058462232354	-0.8443797377902975	0.0	0.7705412533045706	-0.8634738732551852	0.0	0.7678359158318019	-0.8675586290309785	0.0	0.7431297732021049	-0.8523990456865831	0.0	0.7837333638087136	-0.6633319837008893	0.0	0.785621734910945	-0.7611710527823937	0.0	0.7538279380559514	-0.8425933226234582	0.0	0.7788693336863488	-0.8610806184879127	0.0	0.7715616434923747	-0.8603875588288644	0.0	0.7431187201976827	-0.8508035345795415	0.0	0.8347237247273716	-0.5298884623982411	0.0	0.8857036940590226	-0.48556009507879266	0.0	0.8695126220338393	-0.5130523138317149	0.0	0.8293179469083368	-0.5371505012638522	0.0	0.8967746587765836	-0.5047452558074321	0.0	0.9441121513601572	-0.46344634188195416	0.0	0.8288601862175823	-0.5328274942678535	0.0	0.8863770457341739	-0.4953572532892599	0.0	0.9211565461458608	-0.4461177193180231	0.0
64	2.1468354430379746	0.7840207213070849	-0.6612239259218754	0.0	0.7833984276498537	-0.6628037264796994	0.0	0.7885492653611541	-0.7598790687186081	0.0	0.7547333661638295	-0.8407102508178057	0.0	0.7691204114171031	-0.8602231897589341	0.0	0.76611765963747	-0.8643905939430201	0.0	0.7425714607267428	-0.8491813977215998	0.0	0.7852929177690456	-0.6609033973923923	0.0	0.7871590256513439	-0.7583331894299196	0.0	0.7548469730949179	-0.838990671144868	0.0	0.7795494494682451	-0.8585557375954814	0.0	0.7729566684523026	-0.8568563472609737	0.0	0.7434733794596792	-0.8476195146509627	0.0	0.8262294052083426	-0.5253214445715503	0.0	0.871261982604056	-0.4742605350374693	0.0	0.8593578238305517	-0.5043328197048711	0.0	0.8215840061985902	-0.5321237620686181	0.0	0.8874497334687953	-0.4909167907315164	0.0	0.9313158481440178	-0.4441063497313111	0.0	0.8207361851394183	-0.5288162418981128	0.0	0.8789015513335027	-0.4915266501922307	0.0	0.9161974549591229	-0.44219193156973935	0.0
65	2.180379746835443	0.7862939271199246	-0.6432612448027922	0.0	0.7857947468206669	-0.6449541407766587	0.0	0.7906106210119536	-0.7421386784365704	0.0	0.7560807705992908	-0.8243405577733829	0.0	0.7689934775419481	-0.8453288060271715	0.0	0.7653726894768416	-0.8489540560471035	0.0	0.7430134992065528	-0.8339850916131661	0.0	0.7867183803905229	-0.642742611962168	0.0	0.7887879930734386	-0.7406500671553411	0.0	0.7566029276777433	-0.8224960259573165	0.0	0.7804029086664099	-0.8446033292981696	0.0	0.774720394555453	-0.8411752061653538	0.0	0.744562762464125	-0.831987689690711	0.0	0.821525873343368	-0.5086516420756946	0.0	0.8617120974418238	-0.45322531641494745	0.0	0.8534752767977342	-0.4849701326017004	0.0	0.8179304908413239	-0.514484794740393	0.0	0.8823878045024681	-0.46831398523062334	0.0	0.9244747996168051	-0.41949660928165183	0.0	0.8162862170942132	-0.5118898173963171	0.0	0.8754423935840925	-0.47686160934691246	0.0	0.9159390465300572	-0.42959019019910033	0.0
66	2.213924050632911	0.7886522045356987	-0.6132197589965946	0.0	0.7884699343588278	-0.6147984764856028	0.0	0.7932588706815272	-0.7126234983810004	0.0	0.7591474431084139	-0.7979479808039626	0.0	0.771252272327752	-0.8214179505274868	0.0	0.7668672258030415	-0.824122013314431	0.0	0.7454366276212399	-0.8089863774735112	0.0	0.7877842548379056	-0.6122155253640494	0.0	0.7908241341827319	-0.711329385239094	0.0	0.7597807185087212	-0.7957763491257092	0.0	0.7821553772117313	-0.8214525106020536	0.0	0.7774787778414246	-0.8161315866638987	0.0	0.7472616169785036	-0.8062802894030666	0.0	0.8202260858765587	-0.481759202454412	0.0	0.8575820150997048	-0.42424256501326485	0.0	0.8517025402759808	-0.45675599059620203	0.0	0.8176338519650385	-0.4864429971603131	0.0	0.8814713662646114	-0.43840951867032496	0.0	0.9233648601473117	-0.39027110572715595	0.0	0.8150338485159541	-0.4843176168319292	0.0	0.8754607938919661	-0.4526720251878408	0.0	0.9190869576612664	-0.40882921646970305	0.0
67	2.2474683544303797	0.79091813595425	-0.5763073594353084	0.0	0.7911814572506074	-0.5775618033277071	0.0	0.7965545559463634	-0.6762854984774666	0.0	0.764263597194299	-0.7656955826576812	0.0	0.776384848775872	-0.7924593788811966	0.0	0.7712436245922418	-0.794137188986352	0.0	0.7502887596841676	-0.7778410296360129	0.0	0.7885166926736699	-0.5746343406554614	0.0	0.7934641588147713	-0.6753839595943679	0.0	0.7647377651503308	-0.7631020312564929	0.0	0.7854140390923077	-0.7927867141680685	0.0	0.7817295776731696	-0.785960639879295	0.0	0.7520440953963426	-0.7744559997540861	0.0	0.8215136586956722	-0.44865321610846914	0.0	0.8580954587573499	-0.3907140207030781	0.0	0.8532327093056292	-0.4232857484027767	0.0	0.8195695210366769	-0.45224930455281215	0.0	0.8836279611290889	-0.4046163073609413	0.0	0.9264080005194284	-0.3588392504275103	0.0	0.8162767116006837	-0.4504369068346385	0.0	0.8777889144073333	-0.4225781226822895	0.0	0.923951197507249	-0.38288521316841295	0.0
